<?xml version="1.0" standalone="no"?><!DOCTYPE svg PUBLIC "-//W3C//DTD SVG 1.1//EN" "http://www.w3.org/Graphics/SVG/1.1/DTD/svg11.dtd"><svg class="icon" width="200px" height="200.00px" viewBox="0 0 1024 1024" version="1.1" xmlns="http://www.w3.org/2000/svg"><path fill="#707070" d="M763.122089 183.553987c2.890614 0 6.503881 0.722653 9.394495 3.613268 7.949188 7.949188 6.503881 21.679605 0 28.183486-6.503881 4.335921-148.143966 148.143966-148.143966 148.143966s-12.285109 15.898377 0 28.183486c4.335921 4.335921 8.671842 5.781228 13.007763 5.781228 8.671842 0 15.175723-5.781228 15.175723-5.781228l159.706422-146.698659s4.335921-3.613267 10.117149-3.613267c3.613267 0 7.226535 1.445307 11.562456 5.058574 10.839802 10.839802 1.445307 21.679605 1.445307 21.679605L689.411433 429.256175s-13.730416 13.730416 0 28.183486c4.335921 4.335921 9.394495 6.503881 13.730416 6.503882 8.671842 0 14.45307-6.503881 14.45307-6.503882l148.143966-148.143966s7.226535-5.781228 15.175723-5.781228c4.335921 0 8.671842 1.445307 13.007763 5.781228 9.394495 9.394495 1.445307 18.788991 2.890614 20.234298 0 0-132.245589 161.151729-146.698659 171.991531-11.562456 8.671842-52.753705 38.300635-112.733945 38.300635-15.898377 0-33.242061-2.16796-51.308398-7.226534-2.890614 2.890614-17.343684 18.066337-37.577982 40.468595l205.233593 198.729711c15.898377 15.898377 15.898377 40.468596 0 56.366972-5.781228 5.781228-13.007763 8.671842-20.956952 8.671842-13.007763 0-26.738179-6.503881-36.855328-16.62103 0 0-104.784757-109.843331-191.503176-199.452364C422.02964 708.923077 308.573042 831.051517 308.573042 831.051517c-6.503881 5.781228-15.175723 8.671842-24.570219 8.671842-10.117149 0-20.234298-3.613267-28.90614-12.285109-15.898377-15.898377-17.343684-39.023289-2.890614-53.476359L462.498236 575.954834c-18.788991-19.511644-35.410021-36.132675-47.695131-49.140437-10.117149 3.613267-28.183486 9.394495-52.031051 9.394495-52.031052 0-128.632322-29.628793-195.116444-181.386027 0 0-41.913903-80.937191-42.636556-140.917431 0-23.847565 6.503881-31.0741 13.730417-31.0741 11.562456 0 27.460833 16.62103 27.460832 16.62103l45.527171 44.081863 7.226534 7.226535 288.338744 280.389556 42.636556-39.745943s-31.0741-96.835568 31.074101-161.151729c62.1482-62.1482 169.100917-145.253352 169.100917-145.253352s6.503881-1.445307 13.007763-1.445307m0-49.863091c-17.343684 0-31.796754 6.503881-36.855328 10.117149l-6.503882 4.335921c-4.335921 3.613267-109.120677 85.273112-173.436838 149.589273l-0.722654 0.722654c-46.972477 47.695131-54.921665 107.675371-52.753705 151.03458l-238.475652-231.249118h-0.722654l-7.226535-7.226535-44.804516-43.35921c-11.562456-12.285109-34.687368-31.796754-62.870854-31.796753-16.62103 0-31.796754 6.503881-43.35921 18.066337-21.679605 21.679605-20.956951 53.476359-20.956951 63.593507 0.722653 67.929428 41.191249 148.86662 47.69513 162.597036 42.636556 96.112915 118.515173 208.84686 239.92096 208.84686 5.058574 0 10.839802 0 15.175724-0.722653L216.796048 739.274524l-0.722654 0.722653c-16.62103 16.62103-25.292872 40.468596-23.847565 64.316161 1.445307 22.402258 10.839802 43.35921 27.460833 59.257586 17.343684 17.343684 39.745942 26.738179 64.316161 26.73818 21.679605 0 41.913903-7.949188 57.812279-21.679605 1.445307-0.722653 2.16796-2.16796 3.613268-3.613268 0.722653-0.722653 84.550459-91.05434 159.706422-171.991531 75.878617 78.769231 153.925194 160.429076 154.647847 161.151729l0.722654 0.722654c19.511644 19.511644 46.249824 31.0741 72.265349 31.0741 21.679605 0 41.913903-7.949188 56.366973-23.124912 17.343684-17.343684 26.738179-39.745942 26.738179-63.593507 0-23.847565-9.394495-46.249824-26.738179-63.593508l-0.722654-0.722653-149.589273-144.530699c49.140438 0 96.835568-15.898377 140.194778-47.695131l0.722653-0.722653c5.781228-3.613267 20.234298-14.45307 156.815808-180.663373 6.503881-7.949188 10.117149-16.62103 10.839803-26.015526 7.226535-31.0741-7.949188-52.031052-17.343684-61.425547-11.562456-11.562456-26.015526-18.066337-41.191249-19.511644-0.722653-14.45307-7.226535-29.628793-19.511645-42.636556-11.562456-11.562456-26.015526-18.066337-41.191249-19.511645-2.16796-14.45307-8.671842-28.90614-19.511644-39.745942-12.285109-12.285109-28.183486-18.788991-45.52717-18.788991z" /></svg>