<?xml version="1.0" standalone="no"?><!DOCTYPE svg PUBLIC "-//W3C//DTD SVG 1.1//EN" "http://www.w3.org/Graphics/SVG/1.1/DTD/svg11.dtd"><svg class="icon" width="200px" height="200.00px" viewBox="0 0 1024 1024" version="1.1" xmlns="http://www.w3.org/2000/svg"><path fill="#707070" d="M778.9024 828.4832H245.7328l104.6576-289.9488h323.856l104.656 289.9488z m-496.7136-25.6h460.2576l-86.176-238.7488h-287.904l-86.1776 238.7488z"  /><path fill="#707070" d="M513.2464 772.592c-40.8064 0-74.0032-33.9984-74.0032-75.7888s33.1984-75.7888 74.0032-75.7888 74.0048 33.9984 74.0048 75.7888-33.1984 75.7888-74.0048 75.7888z m0-125.9776c-26.6896 0-48.4032 22.5136-48.4032 50.1888s21.7136 50.1888 48.4032 50.1888c26.6912 0 48.4048-22.5136 48.4048-50.1888s-21.7136-50.1888-48.4048-50.1888zM513.2464 635.0192v61.784"  /><path fill="#707070" d="M500.4464 635.0192h25.6v61.784h-25.6z"  /><path fill="#707070" d="M501.1664 684.0032h69.2832v25.6h-69.2832zM500.4464 398.936h25.6v153.128h-25.6z"  /><path fill="#707070" d="M841.1472 411.736H185.3472c-13.0944 0-23.7456-10.6528-23.7456-23.7472v-101.2544h25.6v99.4016h652.0928v-99.4016h25.6v101.2544c0 13.0944-10.6544 23.7472-23.7472 23.7472z"  /><path fill="#707070" d="M276.8192 299.5344H70.8768c-9.408 0-16.2368-8.6-16.2368-20.4512v-70.7664h25.6v65.616h187.216v-65.616h25.6v70.7664c0 11.8496-6.8288 20.4512-16.2368 20.4512z"  /><path fill="#707070" d="M955.064 299.5344H749.1232c-9.4096 0-16.2368-8.6-16.2368-20.4512v-70.7664h25.6v65.616h187.216v-65.616h25.6v70.7664c-0.0016 11.8496-6.8288 20.4512-16.2384 20.4512z"  /></svg>